<?xml version="1.0" encoding="UTF-8"?>
<svg width="410px" height="111px" viewBox="0 0 410 111" version="1.1" xmlns="http://www.w3.org/2000/svg" xmlns:xlink="http://www.w3.org/1999/xlink">
    <!-- Generator: Sketch 42 (36781) - http://www.bohemiancoding.com/sketch -->
    <title>Logo</title>
    <desc>Created with Sketch.</desc>
    <defs></defs>
    <g id="Page-1" stroke="none" stroke-width="1" fill="none" fill-rule="evenodd">
        <g id="Logo">
            <g id="Redux-Logo" fill-rule="nonzero" fill="#764ABC">
                <path d="M20.9093317,49.1495186 L20.8969336,49.1563355 C20.9462216,49.2459771 20.9961463,49.3362612 21.0468032,49.427369 C21.0034543,49.4999327 21.0340904,49.5432846 21.1225076,49.5631647 C21.2587329,49.8068838 21.400431,50.0570177 21.5493755,50.3169415 C21.9989823,51.1015524 23.6709771,53.9296597 24.0215187,54.5363895 C26.1139977,58.1581265 27.4492993,60.9788871 28.5237088,64.3724103 C29.504314,67.4696529 29.5543422,70.5496874 28.503343,74.2445396 C28.3078606,74.9317701 27.5619611,76.7623565 26.4180222,79.3935208 C26.3411634,79.5701958 26.3411634,79.5701958 26.2641632,79.746791 C26.2532456,79.7718163 23.8863408,85.1255199 23.7709436,85.4732327 L28.3266127,86.9851451 C28.3573941,86.8923951 30.3477596,82.3903862 30.6637178,81.6661449 C30.7418756,81.4868947 30.7418756,81.4868947 30.8199864,81.3073419 C32.0726508,78.4260988 32.8399826,76.5429134 33.1201972,75.5578018 C34.4292519,70.9557392 34.3636238,66.9152719 33.0998315,62.9235829 C31.9047493,59.148915 30.4297126,56.0329705 28.1777108,52.135126 C27.8692598,51.6012481 26.6625846,49.5601377 26.0265325,48.4710492 C26.0476685,48.4665351 26.0538107,48.4666256 26.0431112,48.4719753 C21.9431112,41.6719753 20.3,34.2 20.9,26.2 C21.3,20.2 23.3,15 26.8,10.7 C29.7,7 35.3,5.2 39.1,5.1 C49.7,4.9 54.2,18.1 54.5,23.4 C55.8,23.7 58,24.4 59.5,24.9 C58.3,8.7 48.3,0.3 38.7,0.3 C29.7,0.3 21.4,6.8 18.1,16.4 C13.5410805,29.0856891 15.4240337,39.5216967 20.9093317,49.1495186 Z" id="Tail"></path>
                <path d="M72.2,40 C64.6,31.1 53.4,26.2 40.6,26.2 L39,26.2 C38.1,24.4 36.2,23.2 34.1,23.2 L33.9,23.2 C30.8,23.3 28.4,25.9 28.5,29 C28.6,32 31.1,34.4 34.1,34.4 L34.3,34.4 C36.5,34.3 38.4,32.9 39.2,31 L41,31 C48.6,31 55.8,33.2 62.3,37.5 C67.3,40.8 70.9,45.1 72.9,50.3 C74.6,54.5 74.5,58.6 72.7,62.1 C69.9,67.4 65.2,70.3 59,70.3 C55,70.3 51.2,69.1 49.2,68.2 C48.1,69.2 46.1,70.8 44.7,71.8 C49,73.8 53.4,74.9 57.6,74.9 C67.2,74.9 74.3,69.6 77,64.3 C79.9,58.5 79.7,48.5 72.2,40 Z" id="Part-2"></path>
                <path d="M39.3146952,69.0973594 C45.9168321,65.2641332 51.1059435,59.5786979 54.6,52.4 C57.5,52.1 59.7,49.6 59.6,46.6 C59.5,43.6 57,41.2 54,41.2 L53.8,41.2 C50.7,41.3 48.3,43.9 48.4,47 C48.5,48.5 49.1,49.8 50,50.7 C47.4279992,55.7683545 43.8259518,59.8066625 38.8475466,63.2478128 C38.9295056,63.5447481 39.0013311,63.8460957 39.0626609,64.1521885 C39.3447232,65.5599421 39.4119621,67.1799119 39.3146952,69.0973594 Z M24.6601109,74.1942727 C23.3067406,74.4084194 21.9533703,74.5 20.6,74.5 C13.2,74.5 6.5,71.4 3.2,66.4 C-1.2,59.7 -2.7,45.5 11.8,35 C12.1,36.6 12.7,38.8 13.1,40.1 C11.2,41.5 8.2,44.3 6.3,48.1 C3.6,53.4 3.9,58.7 7.1,63.6 C9.3,66.9 12.8,68.9 17.3,69.5 C19.9620913,69.8388116 22.6241827,69.7793607 25.2635957,69.3103081 C25.2066636,70.010677 25.1239094,70.8250979 25.0125629,71.707399 C24.9126466,72.4991285 24.7940438,73.3326078 24.6601109,74.1942727 Z" id="Clipped"></path>
                <path d="M17.9436935,89.18181 L26.8689077,98.029115 L22.2696943,102.588803 C21.4031823,103.447905 18.7707014,105.101596 16.8800291,105.567494 C16.8147293,105.774616 16.7058718,105.971291 16.5396742,106.135893 C15.9940598,106.676457 15.1089749,106.676457 14.563729,106.135893 L14.4990925,106.071601 L11.3749469,109.168721 L9.90584898,107.712727 L7.8542857,105.67869 L6.33986113,104.177546 L9.48737016,101.057267 C9.13890806,100.520721 9.20052276,99.7988244 9.67368831,99.329493 C9.81873345,99.1857859 9.98802649,99.0829918 10.1681537,99.0158505 C10.6896676,97.2215933 12.5269798,94.5502622 13.3438905,93.7401834 L17.9436935,89.18181 Z M26.4122513,96.1718078 L19.8171932,89.6342647 L25.365391,84.1347447 L31.9601543,90.6725069 L26.4122513,96.1718078 Z M27.3201101,90.3502434 L28.6507961,91.6686671 L29.6484236,90.6795936 L28.3179588,89.36117 L27.3201101,90.3502434 Z M25.5209755,88.5345799 L26.5188978,87.5455065 L25.1888015,86.2267175 L24.1908791,87.215864 L25.5209755,88.5345799 Z" id="USB" transform="translate(19.150008, 96.651733) rotate(-194.000000) translate(-19.150008, -96.651733) "></path>
            </g>
            <text id="Text" font-family="Lato-Black, Lato" font-size="48" font-weight="700" fill="#000000">
                <tspan x="107" y="59">Redux Offline</tspan>
            </text>
        </g>
    </g>
</svg>