<?xml version="1.0" encoding="iso-8859-1"?>
<!-- Generator: Adobe Illustrator 19.0.0, SVG Export Plug-In . SVG Version: 6.00 Build 0)  -->
<svg version="1.1" id="Capa_1" xmlns="http://www.w3.org/2000/svg" xmlns:xlink="http://www.w3.org/1999/xlink" x="0px" y="0px"
	 viewBox="0 0 53 53" style="enable-background:new 0 0 53 53;" xml:space="preserve">
<path style="fill:#E7ECED;" d="M33.883,26H34V0H0v34h30h2v-3v-2v-1.117C32,26.843,32.843,26,33.883,26z"/>
<circle style="fill:#CBD4D8;" cx="17" cy="17" r="13"/>
<circle style="fill:#38454F;" cx="12" cy="17" r="3"/>
<circle style="fill:#38454F;" cx="22" cy="17" r="3"/>
<path style="fill:#D3AA6E;" d="M17,4c-0.338,0-0.669,0.025-1,0.051V7c0,0.553,0.447,1,1,1s1-0.447,1-1V4.051
	C17.669,4.025,17.338,4,17,4z"/>
<path style="fill:#D3AA6E;" d="M17,26c-0.553,0-1,0.447-1,1v2.949C16.331,29.975,16.662,30,17,30s0.669-0.025,1-0.051V27
	C18,26.447,17.553,26,17,26z"/>
<path style="fill:none;stroke:#38454F;stroke-width:2;stroke-linecap:round;stroke-miterlimit:10;" d="M16,47L16,47c0-3.3,2.7-6,6-6
	h1c3.3,0,6,2.7,6,6v0v1c0,2.211,1.789,4,4,4h5c2.211,0,4-1.789,4-4"/>
<rect x="40" y="44" style="fill:#546A79;" width="5" height="4"/>
<path style="fill:#38454F;" d="M48,26v2h-3v-2h-5v2h-3v-2h-3.117C32.843,26,32,26.843,32,27.883v10.881
	C32,41.656,34.344,44,37.236,44h10.528C50.656,44,53,41.656,53,38.764V27.849C53,26.828,52.172,26,51.151,26H48z"/>
<path style="fill:#D3AA6E;" d="M40,28h-3V16.5c0-0.828,0.672-1.5,1.5-1.5l0,0c0.828,0,1.5,0.672,1.5,1.5V28z"/>
<path style="fill:#D3AA6E;" d="M48,28h-3V16.5c0-0.828,0.672-1.5,1.5-1.5l0,0c0.828,0,1.5,0.672,1.5,1.5V28z"/>
<path style="fill:#546A79;" d="M51.151,26H48v2h-3v-2h-5v2h-3v-2h-3.117C32.843,26,32,26.843,32,27.883v0.268
	C32,29.172,32.828,30,33.849,30H37h3h5h3h3.117C52.157,30,53,29.157,53,28.117v-0.268C53,26.828,52.172,26,51.151,26z"/>
<g>
</g>
<g>
</g>
<g>
</g>
<g>
</g>
<g>
</g>
<g>
</g>
<g>
</g>
<g>
</g>
<g>
</g>
<g>
</g>
<g>
</g>
<g>
</g>
<g>
</g>
<g>
</g>
<g>
</g>
</svg>
